# This file uses centimeters as units for non-parametric coordinates.

mtllib upfoot1.mtl
g default
v 1.270723 -3.105709 -0.269530
v 1.205365 -3.098112 -0.421135
v 1.104452 -3.096375 -0.541450
v 0.977860 -3.100666 -0.618697
v 0.837982 -3.110566 -0.645314
v 0.698510 -3.125106 -0.618697
v 0.573096 -3.142862 -0.541450
v 0.474018 -3.162097 -0.421135
v 0.410972 -3.180927 -0.269530
v 0.390131 -3.197510 -0.101474
v 0.413535 -3.210221 0.066582
v 0.478893 -3.217818 0.218188
v 0.579806 -3.219555 0.338502
v 0.706398 -3.215264 0.415749
v 0.846276 -3.205364 0.442367
v 0.985748 -3.190824 0.415749
v 1.111161 -3.173068 0.338502
v 1.210240 -3.153833 0.218188
v 1.273285 -3.135003 0.066582
v 1.294126 -3.118420 -0.101474
v 1.114913 0.268495 -0.070100
v 1.028241 0.281762 -0.307508
v 0.894629 0.286619 -0.495915
v 0.727155 0.282591 -0.616880
v 0.542215 0.270071 -0.658562
v 0.357909 0.250286 -0.616880
v 0.192281 0.225172 -0.495915
v 0.061542 0.197187 -0.307508
v -0.021509 0.169071 -0.070100
v -0.048744 0.143576 0.193068
v -0.017496 0.123198 0.456236
v 0.069176 0.109931 0.693643
v 0.202788 0.105074 0.882050
v 0.370261 0.109103 1.003015
v 0.555202 0.121622 1.044697
v 0.739507 0.141407 1.003015
v 0.905136 0.166522 0.882050
v 1.035874 0.194506 0.693643
v 1.118926 0.222622 0.456235
v 1.146161 0.248117 0.193068
v 0.281898 -1.562722 0.464645
v 0.207085 -1.551790 0.265641
v 0.180147 -1.534773 0.045044
v 0.203721 -1.513338 -0.175553
v 0.275499 -1.489581 -0.374556
v 0.388455 -1.465828 -0.532486
v 0.531532 -1.444406 -0.633883
v 0.690725 -1.427410 -0.668822
v 0.850451 -1.416504 -0.633883
v 0.995074 -1.412756 -0.532486
v 1.110439 -1.416533 -0.374556
v 1.185251 -1.427465 -0.175553
v 1.212189 -1.444481 0.045044
v 1.188615 -1.465917 0.265641
v 1.116837 -1.489674 0.464645
v 1.003881 -1.513426 0.622575
v 0.860804 -1.534849 0.723972
v 0.701612 -1.551845 0.758911
v 0.541886 -1.562751 0.723972
v 0.397263 -1.566499 0.622575
vt 0.648603 0.107966
vt 0.626409 0.064408
vt 0.591842 0.029841
vt 0.548284 0.007647
vt 0.500000 -0.000000
vt 0.451716 0.007647
vt 0.408159 0.029841
vt 0.373591 0.064409
vt 0.351397 0.107966
vt 0.343750 0.156250
vt 0.351397 0.204534
vt 0.373591 0.248091
vt 0.408159 0.282659
vt 0.451716 0.304853
vt 0.500000 0.312500
vt 0.548284 0.304853
vt 0.591841 0.282659
vt 0.626409 0.248091
vt 0.648603 0.204534
vt 0.656250 0.156250
vt 0.375000 0.312500
vt 0.387500 0.312500
vt 0.400000 0.312500
vt 0.412500 0.312500
vt 0.425000 0.312500
vt 0.437500 0.312500
vt 0.450000 0.312500
vt 0.462500 0.312500
vt 0.475000 0.312500
vt 0.487500 0.312500
vt 0.500000 0.312500
vt 0.512500 0.312500
vt 0.525000 0.312500
vt 0.537500 0.312500
vt 0.550000 0.312500
vt 0.562500 0.312500
vt 0.575000 0.312500
vt 0.587500 0.312500
vt 0.600000 0.312500
vt 0.612500 0.312500
vt 0.625000 0.312500
vt 0.375000 0.688440
vt 0.387500 0.688440
vt 0.400000 0.688440
vt 0.412500 0.688440
vt 0.425000 0.688440
vt 0.437500 0.688440
vt 0.450000 0.688440
vt 0.462500 0.688440
vt 0.475000 0.688440
vt 0.487500 0.688440
vt 0.500000 0.688440
vt 0.512500 0.688440
vt 0.525000 0.688440
vt 0.537500 0.688440
vt 0.550000 0.688440
vt 0.562500 0.688440
vt 0.575000 0.688440
vt 0.587500 0.688440
vt 0.600000 0.688440
vt 0.612500 0.688440
vt 0.625000 0.688440
vt 0.648603 0.795466
vt 0.626409 0.751908
vt 0.591842 0.717341
vt 0.548284 0.695147
vt 0.500000 0.687500
vt 0.451716 0.695147
vt 0.408159 0.717341
vt 0.373591 0.751909
vt 0.351397 0.795466
vt 0.343750 0.843750
vt 0.351397 0.892034
vt 0.373591 0.935591
vt 0.408159 0.970159
vt 0.451716 0.992353
vt 0.500000 1.000000
vt 0.548284 0.992353
vt 0.591841 0.970159
vt 0.626409 0.935591
vt 0.648603 0.892034
vt 0.656250 0.843750
vt 0.512500 0.499510
vt 0.500000 0.499510
vt 0.487500 0.499510
vt 0.475000 0.499510
vt 0.462500 0.499510
vt 0.450000 0.499510
vt 0.437500 0.499510
vt 0.425000 0.499510
vt 0.412500 0.499510
vt 0.400000 0.499510
vt 0.387500 0.499510
vt 0.625000 0.499510
vt 0.375000 0.499510
vt 0.612500 0.499510
vt 0.600000 0.499510
vt 0.587500 0.499510
vt 0.575000 0.499510
vt 0.562500 0.499510
vt 0.550000 0.499510
vt 0.537500 0.499510
vt 0.525000 0.499510
vn 0.967872 0.062153 -0.243642
vn 0.870701 0.062403 -0.487839
vn 0.877651 0.061537 -0.475334
vn 0.969925 0.057783 -0.236444
vn 0.685207 0.048799 -0.726712
vn 0.697501 0.053272 -0.714600
vn 0.388840 0.022124 -0.921040
vn 0.400046 0.031379 -0.915958
vn 0.001103 -0.012608 -0.999920
vn 0.000199 -0.002274 -0.999997
vn -0.386774 -0.045733 -0.921040
vn -0.399417 -0.038565 -0.915958
vn -0.683271 -0.070928 -0.726711
vn -0.696156 -0.068657 -0.714600
vn -0.868309 -0.089741 -0.487838
vn -0.875003 -0.091801 -0.475334
vn -0.963960 -0.106860 -0.243643
vn -0.965224 -0.111521 -0.236445
vn -0.992028 -0.125967 -0.003414
vn -0.991367 -0.131056 -0.003863
vn -0.960303 -0.148667 0.236045
vn -0.961681 -0.152014 0.228169
vn -0.860944 -0.173923 0.478045
vn -0.867829 -0.173798 0.465475
vn -0.672287 -0.196471 0.713743
vn -0.685351 -0.192157 0.702403
vn -0.372851 -0.204882 0.904989
vn -0.385560 -0.196959 0.901416
vn 0.016220 -0.185390 0.982531
vn 0.015330 -0.175227 0.984409
vn 0.402764 -0.137024 0.904989
vn 0.413904 -0.127015 0.901416
vn 0.696191 -0.076745 0.713743
vn 0.708307 -0.070228 0.702403
vn 0.878066 -0.021780 0.478044
vn 0.884824 -0.020460 0.465475
vn 0.971529 0.020346 0.236045
vn 0.973468 0.017289 0.228169
vn 0.998831 0.048210 -0.003414
vn 0.999064 0.043084 -0.003862
vn 0.086824 -0.992404 -0.087156
vn 0.086824 -0.992404 -0.087156
vn 0.086824 -0.992404 -0.087156
vn 0.086824 -0.992404 -0.087156
vn 0.086824 -0.992404 -0.087156
vn 0.086824 -0.992404 -0.087156
vn 0.086824 -0.992404 -0.087156
vn 0.086824 -0.992404 -0.087156
vn 0.086824 -0.992404 -0.087156
vn 0.086824 -0.992404 -0.087156
vn 0.086824 -0.992404 -0.087156
vn 0.086824 -0.992404 -0.087156
vn 0.086824 -0.992404 -0.087156
vn 0.086824 -0.992404 -0.087156
vn 0.086824 -0.992404 -0.087156
vn 0.086824 -0.992404 -0.087156
vn 0.086824 -0.992404 -0.087156
vn 0.086824 -0.992404 -0.087156
vn 0.086824 -0.992404 -0.087156
vn 0.086824 -0.992404 -0.087156
vn -0.086824 0.992404 0.087156
vn -0.086824 0.992404 0.087156
vn -0.086824 0.992404 0.087156
vn -0.086824 0.992404 0.087156
vn -0.086824 0.992404 0.087156
vn -0.086824 0.992404 0.087156
vn -0.086824 0.992404 0.087156
vn -0.086824 0.992404 0.087156
vn -0.086824 0.992404 0.087156
vn -0.086824 0.992404 0.087156
vn -0.086824 0.992404 0.087156
vn -0.086824 0.992404 0.087156
vn -0.086824 0.992404 0.087156
vn -0.086824 0.992404 0.087156
vn -0.086824 0.992404 0.087156
vn -0.086824 0.992404 0.087156
vn -0.086824 0.992404 0.087156
vn -0.086824 0.992404 0.087156
vn -0.086824 0.992404 0.087156
vn -0.086824 0.992404 0.087156
vn -0.874719 -0.173294 0.452587
vn -0.963165 -0.154396 0.220171
vn -0.990837 -0.135000 -0.004211
vn -0.966589 -0.115252 -0.228958
vn -0.881697 -0.093544 -0.462451
vn -0.708995 -0.066985 -0.702025
vn -0.412151 -0.032832 -0.910524
vn -0.000554 0.006332 -0.999980
vn 0.411591 0.039236 -0.910524
vn 0.709855 0.057149 -0.702025
vn 0.884545 0.060983 -0.462451
vn 0.971918 0.054345 -0.228957
vn 0.999226 0.039108 -0.004210
vn 0.975343 0.015201 0.220171
vn 0.891523 -0.018768 0.452587
vn 0.720474 -0.064218 0.690503
vn 0.425375 -0.118322 0.897249
vn 0.014589 -0.166748 0.985892
vn -0.398367 -0.190390 0.897249
vn -0.698377 -0.188351 0.690503
s 1
g superman:pCylinder16
usemtl superman:blinn2SG
f 1/21/1 2/22/2 51/93/3 52/95/4
f 2/22/2 3/23/5 50/92/6 51/93/3
f 3/23/5 4/24/7 49/91/8 50/92/6
f 4/24/7 5/25/9 48/90/10 49/91/8
f 5/25/9 6/26/11 47/89/12 48/90/10
f 6/26/11 7/27/13 46/88/14 47/89/12
f 7/27/13 8/28/15 45/87/16 46/88/14
f 8/28/15 9/29/17 44/86/18 45/87/16
f 9/29/17 10/30/19 43/85/20 44/86/18
f 10/30/19 11/31/21 42/84/22 43/85/20
f 11/31/21 12/32/23 41/83/24 42/84/22
f 12/32/23 13/33/25 60/103/26 41/83/24
f 13/33/25 14/34/27 59/102/28 60/103/26
f 14/34/27 15/35/29 58/101/30 59/102/28
f 15/35/29 16/36/31 57/100/32 58/101/30
f 16/36/31 17/37/33 56/99/34 57/100/32
f 17/37/33 18/38/35 55/98/36 56/99/34
f 18/38/35 19/39/37 54/97/38 55/98/36
f 19/39/37 20/40/39 53/96/40 54/97/38
f 20/40/39 1/41/1 52/94/4 53/96/40
s off
f 1/1/41 20/20/42 19/19/43 18/18/44 17/17/45 16/16/46 15/15/47 14/14/48 13/13/49 12/12/50 11/11/51 10/10/52 9/9/53 8/8/54 7/7/55 6/6/56 5/5/57 4/4/58 3/3/59 2/2/60
f 21/81/61 22/80/62 23/79/63 24/78/64 25/77/65 26/76/66 27/75/67 28/74/68 29/73/69 30/72/70 31/71/71 32/70/72 33/69/73 34/68/74 35/67/75 36/66/76 37/65/77 38/64/78 39/63/79 40/82/80
s 1
f 42/84/22 41/83/24 32/53/81 31/52/82
f 43/85/20 42/84/22 31/52/82 30/51/83
f 44/86/18 43/85/20 30/51/83 29/50/84
f 45/87/16 44/86/18 29/50/84 28/49/85
f 46/88/14 45/87/16 28/49/85 27/48/86
f 47/89/12 46/88/14 27/48/86 26/47/87
f 48/90/10 47/89/12 26/47/87 25/46/88
f 49/91/8 48/90/10 25/46/88 24/45/89
f 50/92/6 49/91/8 24/45/89 23/44/90
f 51/93/3 50/92/6 23/44/90 22/43/91
f 52/95/4 51/93/3 22/43/91 21/42/92
f 53/96/40 52/94/4 21/62/92 40/61/93
f 54/97/38 53/96/40 40/61/93 39/60/94
f 55/98/36 54/97/38 39/60/94 38/59/95
f 56/99/34 55/98/36 38/59/95 37/58/96
f 57/100/32 56/99/34 37/58/96 36/57/97
f 58/101/30 57/100/32 36/57/97 35/56/98
f 59/102/28 58/101/30 35/56/98 34/55/99
f 60/103/26 59/102/28 34/55/99 33/54/100
f 41/83/24 60/103/26 33/54/100 32/53/81
