# This file uses centimeters as units for non-parametric coordinates.

mtllib nose.mtl
g default
v 0.063059 4.886136 0.676522
v 0.053860 4.932599 0.659611
v 0.039532 4.969472 0.646190
v 0.021478 4.993146 0.637573
v 0.001464 5.001304 0.634604
v -0.018549 4.993146 0.637573
v -0.036603 4.969472 0.646190
v -0.050931 4.932599 0.659611
v -0.060130 4.886136 0.676522
v -0.066193 4.834631 0.695268
v -0.072926 4.783126 0.714014
v -0.061816 4.736663 0.730925
v -0.044511 4.738593 0.785840
v -0.022706 4.748147 0.829990
v 0.001464 4.750075 0.843745
v 0.025635 4.748147 0.829990
v 0.047440 4.738593 0.785840
v 0.064745 4.736663 0.730925
v 0.075855 4.783126 0.714014
v 0.069122 4.834631 0.695268
v 0.063059 4.926907 0.788539
v 0.053860 4.973370 0.771628
v 0.039532 5.010243 0.758207
v 0.021478 5.033918 0.749591
v 0.001464 5.042075 0.746622
v -0.018549 5.033918 0.749591
v -0.036603 5.010243 0.758207
v -0.050931 4.973370 0.771628
v -0.060130 4.926907 0.788539
v -0.066193 4.875402 0.807285
v -0.072926 4.823897 0.826032
v -0.061816 4.777434 0.842943
v -0.044511 4.779364 0.853477
v -0.022706 4.788918 0.868651
v 0.001464 4.790846 0.882406
v 0.025635 4.788918 0.868651
v 0.047440 4.779364 0.853477
v 0.064745 4.777434 0.842943
v 0.075855 4.823897 0.826032
v 0.069122 4.875402 0.807285
v 0.001464 4.834631 0.695268
v 0.001464 4.875402 0.807285
vt 0.648603 0.107966
vt 0.626409 0.064408
vt 0.591842 0.029841
vt 0.548284 0.007647
vt 0.500000 -0.000000
vt 0.451716 0.007647
vt 0.408159 0.029841
vt 0.373591 0.064409
vt 0.351397 0.107966
vt 0.343750 0.156250
vt 0.351397 0.204534
vt 0.373591 0.248091
vt 0.408159 0.282659
vt 0.451716 0.304853
vt 0.500000 0.312500
vt 0.548284 0.304853
vt 0.591841 0.282659
vt 0.626409 0.248091
vt 0.648603 0.204534
vt 0.656250 0.156250
vt 0.375000 0.312500
vt 0.387500 0.312500
vt 0.400000 0.312500
vt 0.412500 0.312500
vt 0.425000 0.312500
vt 0.437500 0.312500
vt 0.450000 0.312500
vt 0.462500 0.312500
vt 0.475000 0.312500
vt 0.487500 0.312500
vt 0.500000 0.312500
vt 0.512500 0.312500
vt 0.525000 0.312500
vt 0.537500 0.312500
vt 0.550000 0.312500
vt 0.562500 0.312500
vt 0.575000 0.312500
vt 0.587500 0.312500
vt 0.600000 0.312500
vt 0.612500 0.312500
vt 0.625000 0.312500
vt 0.375000 0.688440
vt 0.387500 0.688440
vt 0.400000 0.688440
vt 0.412500 0.688440
vt 0.425000 0.688440
vt 0.437500 0.688440
vt 0.450000 0.688440
vt 0.462500 0.688440
vt 0.475000 0.688440
vt 0.487500 0.688440
vt 0.500000 0.688440
vt 0.512500 0.688440
vt 0.525000 0.688440
vt 0.537500 0.688440
vt 0.550000 0.688440
vt 0.562500 0.688440
vt 0.575000 0.688440
vt 0.587500 0.688440
vt 0.600000 0.688440
vt 0.612500 0.688440
vt 0.625000 0.688440
vt 0.648603 0.795466
vt 0.626409 0.751908
vt 0.591842 0.717341
vt 0.548284 0.695147
vt 0.500000 0.687500
vt 0.451716 0.695147
vt 0.408159 0.717341
vt 0.373591 0.751909
vt 0.351397 0.795466
vt 0.343750 0.843750
vt 0.351397 0.892034
vt 0.373591 0.935591
vt 0.408159 0.970159
vt 0.451716 0.992353
vt 0.500000 1.000000
vt 0.548284 0.992353
vt 0.591841 0.970159
vt 0.626409 0.935591
vt 0.648603 0.892034
vt 0.656250 0.843750
vt 0.500000 0.150000
vt 0.500000 0.837500
vn 0.989454 0.136111 -0.049540
vn 0.966566 0.240954 -0.087700
vn 0.966566 0.240954 -0.087700
vn 0.989454 0.136111 -0.049540
vn 0.893507 0.421967 -0.153584
vn 0.893507 0.421967 -0.153584
vn 0.664768 0.701998 -0.255506
vn 0.664768 0.701998 -0.255506
vn -0.000000 0.939693 -0.342020
vn -0.000000 0.939693 -0.342020
vn -0.664768 0.701997 -0.255506
vn -0.664768 0.701997 -0.255506
vn -0.893508 0.421967 -0.153583
vn -0.893508 0.421967 -0.153583
vn -0.966566 0.240954 -0.087700
vn -0.966566 0.240954 -0.087700
vn -0.989454 0.136111 -0.049541
vn -0.989454 0.136111 -0.049541
vn -0.993256 0.108950 -0.039655
vn -0.993256 0.108950 -0.039655
vn -0.999120 -0.039418 0.014347
vn -0.999120 -0.039418 0.014347
vn -0.965036 -0.244868 0.093512
vn -0.898185 -0.405211 0.170495
vn -0.549932 -0.751082 0.365308
vn -0.482292 -0.733753 0.478539
vn -0.409577 -0.700019 0.584996
vn -0.368418 -0.671251 0.643187
vn 0.000000 -0.688081 0.725634
vn 0.000000 -0.688081 0.725634
vn 0.409577 -0.700019 0.584996
vn 0.368418 -0.671251 0.643187
vn 0.549932 -0.751083 0.365308
vn 0.482292 -0.733754 0.478539
vn 0.965036 -0.244868 0.093512
vn 0.898185 -0.405211 0.170495
vn 0.999120 -0.039418 0.014347
vn 0.999120 -0.039418 0.014347
vn 0.993256 0.108950 -0.039654
vn 0.993256 0.108950 -0.039654
vn 0.000000 -0.342020 -0.939693
vn 0.000000 -0.342020 -0.939693
vn 0.000000 -0.648438 -0.761267
vn 0.000000 -0.342020 -0.939693
vn 0.000000 -0.342020 -0.939693
vn 0.000000 -0.342020 -0.939693
vn 0.000000 -0.342020 -0.939693
vn 0.000000 -0.342020 -0.939693
vn 0.000000 -0.342020 -0.939693
vn 0.000000 -0.342020 -0.939693
vn 0.000000 -0.342020 -0.939693
vn 0.000000 -0.342020 -0.939693
vn 0.540574 -0.573281 -0.615734
vn 0.768286 -0.593628 -0.239463
vn 0.508065 -0.763381 -0.398897
vn 0.000000 -0.868968 -0.494868
vn -0.508065 -0.763381 -0.398897
vn -0.768286 -0.593628 -0.239462
vn -0.540574 -0.573281 -0.615734
vn -0.000000 -0.342020 -0.939693
vn 0.000000 -0.342020 -0.939693
vn 0.000000 0.342020 0.939693
vn 0.000000 0.342020 0.939693
vn 0.000000 0.443669 0.896191
vn 0.000000 0.342020 0.939693
vn 0.000000 0.342020 0.939693
vn 0.000000 0.342020 0.939693
vn 0.000000 0.342020 0.939693
vn 0.000000 0.342020 0.939693
vn 0.000000 0.342020 0.939693
vn 0.000000 0.342020 0.939693
vn 0.000000 0.342020 0.939693
vn -0.000000 0.342020 0.939693
vn -0.105017 0.399328 0.910774
vn -0.538888 0.560450 0.628885
vn -0.533694 0.583499 0.612127
vn -0.000000 0.664165 0.747586
vn 0.533694 0.583499 0.612127
vn 0.538888 0.560450 0.628884
vn 0.105017 0.399328 0.910774
vn 0.000000 0.342020 0.939693
vn 0.000000 0.342020 0.939693
s 1
g superman:pCylinder17
usemtl superman:blinn1SG
f 1/21/1 2/22/2 22/43/3 21/42/4
f 2/22/2 3/23/5 23/44/6 22/43/3
f 3/23/5 4/24/7 24/45/8 23/44/6
f 4/24/7 5/25/9 25/46/10 24/45/8
f 5/25/9 6/26/11 26/47/12 25/46/10
f 6/26/11 7/27/13 27/48/14 26/47/12
f 7/27/13 8/28/15 28/49/16 27/48/14
f 8/28/15 9/29/17 29/50/18 28/49/16
f 9/29/17 10/30/19 30/51/20 29/50/18
f 10/30/19 11/31/21 31/52/22 30/51/20
f 11/31/21 12/32/23 32/53/24 31/52/22
f 12/32/23 13/33/25 33/54/26 32/53/24
f 13/33/25 14/34/27 34/55/28 33/54/26
f 14/34/27 15/35/29 35/56/30 34/55/28
f 15/35/29 16/36/31 36/57/32 35/56/30
f 16/36/31 17/37/33 37/58/34 36/57/32
f 17/37/33 18/38/35 38/59/36 37/58/34
f 18/38/35 19/39/37 39/60/38 38/59/36
f 19/39/37 20/40/39 40/61/40 39/60/38
f 20/40/39 1/41/1 21/62/4 40/61/40
s 2
f 2/2/41 1/1/42 41/83/43
f 3/3/44 2/2/41 41/83/43
f 4/4/45 3/3/44 41/83/43
f 5/5/46 4/4/45 41/83/43
f 6/6/47 5/5/46 41/83/43
f 7/7/48 6/6/47 41/83/43
f 8/8/49 7/7/48 41/83/43
f 9/9/50 8/8/49 41/83/43
f 10/10/51 9/9/50 41/83/43
f 11/11/52 10/10/51 41/83/43
f 12/12/53 11/11/52 41/83/43
f 13/13/54 12/12/53 41/83/43
f 14/14/55 13/13/54 41/83/43
f 15/15/56 14/14/55 41/83/43
f 16/16/57 15/15/56 41/83/43
f 17/17/58 16/16/57 41/83/43
f 18/18/59 17/17/58 41/83/43
f 19/19/60 18/18/59 41/83/43
f 20/20/61 19/19/60 41/83/43
f 1/1/42 20/20/61 41/83/43
s 3
f 21/81/62 22/80/63 42/84/64
f 22/80/63 23/79/65 42/84/64
f 23/79/65 24/78/66 42/84/64
f 24/78/66 25/77/67 42/84/64
f 25/77/67 26/76/68 42/84/64
f 26/76/68 27/75/69 42/84/64
f 27/75/69 28/74/70 42/84/64
f 28/74/70 29/73/71 42/84/64
f 29/73/71 30/72/72 42/84/64
f 30/72/72 31/71/73 42/84/64
f 31/71/73 32/70/74 42/84/64
f 32/70/74 33/69/75 42/84/64
f 33/69/75 34/68/76 42/84/64
f 34/68/76 35/67/77 42/84/64
f 35/67/77 36/66/78 42/84/64
f 36/66/78 37/65/79 42/84/64
f 37/65/79 38/64/80 42/84/64
f 38/64/80 39/63/81 42/84/64
f 39/63/81 40/82/82 42/84/64
f 40/82/82 21/81/62 42/84/64
